<svg width="21" height="20" viewBox="0 0 21 20" fill="none" xmlns="http://www.w3.org/2000/svg">
<path d="M2.50166 10.0016C2.50263 14.1011 5.48366 17.5916 9.5325 18.2341V12.41H7.41833V10.0016H9.535V8.16829C9.44037 7.29957 9.7371 6.43378 10.3447 5.80573C10.9523 5.17768 11.8078 4.85247 12.6792 4.91829C13.3046 4.92839 13.9285 4.98409 14.5458 5.08496V7.13412H13.4925C13.1299 7.08663 12.7653 7.20639 12.5015 7.45968C12.2377 7.71297 12.1031 8.07236 12.1358 8.43662V10.0016H14.445L14.0758 12.4108H12.1358V18.2341C16.5146 17.5421 19.5851 13.5431 19.1229 9.13418C18.6608 4.72526 14.8277 1.4499 10.4007 1.68094C5.97363 1.91198 2.50237 5.56855 2.50166 10.0016Z" fill="#9A41FE"/>
</svg>
