<svg width="21" height="20" viewBox="0 0 21 20" fill="none" xmlns="http://www.w3.org/2000/svg">
<path d="M17.4958 5.5733C18.2429 5.12671 18.8018 4.4235 19.0683 3.59497C18.3664 4.01147 17.5984 4.30487 16.7975 4.46247C15.6871 3.28791 13.9279 3.00208 12.5028 3.76468C11.0777 4.52729 10.3396 6.14954 10.7008 7.72497C7.8255 7.58061 5.14663 6.2224 3.33083 3.9883C2.38319 5.62282 2.86745 7.71229 4.43749 8.7633C3.86975 8.74505 3.3146 8.59134 2.81833 8.31497C2.81833 8.32997 2.81833 8.34497 2.81833 8.35997C2.81865 10.0626 4.01864 11.5292 5.68749 11.8666C5.16088 12.0099 4.6085 12.031 4.07249 11.9283C4.54183 13.3844 5.88379 14.3819 7.41333 14.4116C6.14652 15.4059 4.58206 15.9451 2.97166 15.9425C2.68622 15.9429 2.401 15.9265 2.11749 15.8933C3.75282 16.9442 5.65613 17.5019 7.59999 17.5C10.3044 17.5185 12.9033 16.4524 14.8156 14.54C16.7278 12.6276 17.7938 10.0285 17.775 7.32414C17.775 7.16914 17.7714 7.01497 17.7642 6.86164C18.4645 6.35547 19.069 5.72843 19.5492 5.00997C18.8967 5.29919 18.2046 5.48907 17.4958 5.5733Z" fill="#9A41FE"/>
</svg>
