<svg width="21" height="20" viewBox="0 0 21 20" fill="none" xmlns="http://www.w3.org/2000/svg">
<path d="M11 17.5H7.66666V7.5H11V9.16667C11.7105 8.26271 12.788 7.72381 13.9375 7.6975C16.0047 7.70898 17.6727 9.39115 17.6667 11.4583V17.5H14.3333V11.875C14.2 10.9439 13.4015 10.253 12.4608 10.255C12.0494 10.268 11.661 10.4481 11.3854 10.7539C11.1097 11.0596 10.9705 11.4644 11 11.875V17.5ZM5.99999 17.5H2.66666V7.5H5.99999V17.5ZM4.33333 5.83333C3.41285 5.83333 2.66666 5.08714 2.66666 4.16667C2.66666 3.24619 3.41285 2.5 4.33333 2.5C5.2538 2.5 5.99999 3.24619 5.99999 4.16667C5.99999 4.60869 5.8244 5.03262 5.51184 5.34518C5.19928 5.65774 4.77535 5.83333 4.33333 5.83333Z" fill="#9A41FE"/>
</svg>
