<svg width="21" height="20" viewBox="0 0 21 20" fill="none" xmlns="http://www.w3.org/2000/svg">
<path d="M10.5016 17.5342C8.45165 17.5342 8.20998 17.5233 7.40998 17.4883C6.78612 17.4678 6.17034 17.341 5.58915 17.1133C4.58357 16.722 3.78843 15.9265 3.39748 14.9208C3.17857 14.3375 3.0605 13.7212 3.04831 13.0983C3.00165 12.3 3.00165 12.0383 3.00165 10.0042C3.00165 7.94832 3.01248 7.70832 3.04831 6.91248C3.06076 6.29042 3.17883 5.67499 3.39748 5.09248C3.78801 4.08543 4.58444 3.28929 5.59165 2.89915C6.17385 2.67932 6.78944 2.56094 7.41165 2.54915C8.20748 2.50415 8.46915 2.50415 10.5016 2.50415C12.5683 2.50415 12.8058 2.51498 13.5933 2.54915C14.2171 2.56104 14.8344 2.67941 15.4183 2.89915C16.4252 3.28974 17.2215 4.08571 17.6125 5.09248C17.8351 5.68348 17.9538 6.30853 17.9633 6.93998C18.01 7.73832 18.01 7.99915 18.01 10.0325C18.01 12.0658 17.9983 12.3325 17.9633 13.1217C17.9509 13.7452 17.8326 14.362 17.6133 14.9458C17.2214 15.9522 16.425 16.748 15.4183 17.1392C14.8352 17.3576 14.2192 17.4757 13.5966 17.4883C12.8008 17.5342 12.54 17.5342 10.5016 17.5342ZM10.4733 3.82332C8.43498 3.82332 8.22331 3.83332 7.42748 3.86915C6.95247 3.87544 6.48205 3.9631 6.03665 4.12832C5.37894 4.37999 4.8585 4.89831 4.60415 5.55498C4.43766 6.00523 4.34999 6.4808 4.34498 6.96082C4.30081 7.76832 4.30081 7.97998 4.30081 10.0042C4.30081 12.0042 4.30831 12.2467 4.34498 13.0492C4.35244 13.5243 4.44006 13.9948 4.60415 14.4408C4.85888 15.0971 5.37923 15.615 6.03665 15.8667C6.48174 16.033 6.95236 16.1207 7.42748 16.1258C8.23415 16.1725 8.44665 16.1725 10.4733 16.1725C12.5175 16.1725 12.7291 16.1625 13.5183 16.1258C13.9936 16.12 14.4644 16.0324 14.91 15.8667C15.5637 15.6128 16.0808 15.0961 16.335 14.4425C16.5011 13.9919 16.5888 13.5161 16.5941 13.0358H16.6033C16.6391 12.2392 16.6391 12.0267 16.6391 9.99082C16.6391 7.95498 16.63 7.74082 16.5941 6.94498C16.5867 6.47036 16.4991 6.00041 16.335 5.55498C16.0813 4.90046 15.5642 4.38273 14.91 4.12832C14.4645 3.96227 13.9937 3.87458 13.5183 3.86915C12.7125 3.82332 12.5016 3.82332 10.4733 3.82332ZM10.5016 13.8533C8.94331 13.8543 7.53783 12.9164 6.9407 11.477C6.34357 10.0376 6.6724 8.38026 7.77384 7.27787C8.87528 6.17548 10.5324 5.84521 11.9723 6.44109C13.4122 7.03698 14.3513 8.44164 14.3516 9.99998C14.3494 12.1259 12.6275 13.8492 10.5016 13.8533ZM10.5016 7.49832C9.12094 7.49832 8.00165 8.61761 8.00165 9.99832C8.00165 11.379 9.12094 12.4983 10.5016 12.4983C11.8824 12.4983 13.0016 11.379 13.0016 9.99832C12.9984 8.61894 11.881 7.50152 10.5016 7.49832ZM14.5016 6.90415C14.0062 6.90231 13.6057 6.49964 13.6066 6.00416C13.6076 5.50867 14.0095 5.10749 14.505 5.10749C15.0005 5.10749 15.4024 5.50867 15.4033 6.00415C15.4035 6.2432 15.3086 6.4725 15.1394 6.64138C14.9702 6.81026 14.7407 6.90481 14.5016 6.90415Z" fill="#9A41FE"/>
</svg>
